<?xml version="1.0" encoding="UTF-8"?>
<svg id="Layer_2" data-name="Layer 2" xmlns="http://www.w3.org/2000/svg" viewBox="0 0 47.25 9.11">
  <defs>
    <style>
      .cls-1 {
        fill: #1958ff;
        stroke-width: 0px;
      }
    </style>
  </defs>
  <g id="Layer_1-2" data-name="Layer 1">
    <path class="cls-1" d="M7.51,8.95V.07h1.79v8.88h-1.79Z"/>
    <path class="cls-1" d="M16.75,8.95h-1.79v-.94h-.03c-.23.36-.5.64-.82.82s-.67.28-1.07.28c-.71,0-1.25-.22-1.61-.65s-.53-1.08-.53-1.94v-3.71h1.79v3.54c0,.46.09.8.27,1.03s.45.35.81.35.65-.13.86-.38.32-.59.32-1.02v-3.52h1.79v6.15Z"/>
    <path class="cls-1" d="M23.91,6.38h-4.05c.03.47.19.83.46,1.06s.66.35,1.15.35c.18,0,.42-.05.74-.16s.61-.27.91-.49l.78,1.04c-.42.31-.84.54-1.28.69s-.91.22-1.44.22c-.98,0-1.74-.28-2.29-.83s-.81-1.32-.81-2.31.29-1.78.86-2.4,1.3-.92,2.18-.92,1.53.26,2.03.77.75,1.26.75,2.23v.73ZM22.25,5.26c0-.48-.1-.83-.29-1.05s-.47-.33-.84-.33c-.32,0-.6.12-.83.37s-.37.58-.42,1h2.39Z"/>
    <path class="cls-1" d="M26.97,8.22h-.02v.73h-1.79V.07h1.79v3.68h.02c.23-.37.52-.64.86-.82s.72-.27,1.16-.27c.79,0,1.4.27,1.83.82s.64,1.29.64,2.23c0,1.03-.25,1.85-.75,2.47s-1.17.93-2.01.93c-.38,0-.72-.07-1.01-.22s-.53-.37-.73-.67ZM26.92,5.64v.65c0,.42.12.76.36,1.03s.55.4.92.4c.45,0,.8-.17,1.05-.52s.37-.84.37-1.48c0-.53-.11-.95-.34-1.24s-.55-.45-.97-.45-.74.15-1,.45-.39.68-.39,1.15Z"/>
    <path class="cls-1" d="M33.72,1.98c-.31,0-.57-.09-.76-.28s-.3-.42-.3-.71.1-.53.3-.71.45-.28.76-.28.57.09.76.28.3.42.3.71-.1.53-.3.71-.45.28-.76.28ZM34.6,8.95h-1.79V2.81h1.79v6.15Z"/>
    <path class="cls-1" d="M40.16,4.3c-.08-.02-.16-.03-.24-.04s-.17-.01-.27-.01c-.49,0-.86.16-1.1.47s-.37.74-.37,1.29v2.95h-1.79V2.81h1.79v1.15h.02c.14-.42.35-.73.63-.94s.61-.31,1-.31c.09,0,.18,0,.27.02s.18.03.27.05l-.21,1.54Z"/>
    <path class="cls-1" d="M45.43,8.09c-.22.34-.49.59-.81.76s-.69.26-1.12.26c-.77,0-1.38-.27-1.85-.82s-.7-1.3-.7-2.27c0-1.02.26-1.83.78-2.45s1.19-.92,2.03-.92c.39,0,.73.07,1.01.22s.5.36.66.66h.02V.07h1.79v8.88h-1.79v-.87h-.02ZM42.77,5.96c0,.57.12,1,.36,1.31s.57.46.99.46.74-.16.99-.48.38-.74.38-1.26v-.51c0-.41-.12-.76-.36-1.03s-.56-.41-.94-.41c-.44,0-.79.17-1.03.51s-.37.81-.37,1.41Z"/>
    <path class="cls-1" d="M5.75,5.14c-.32-.36-.8-.58-1.34-.65h0c.42-.14.81-.39,1.08-.73.26-.33.4-.73.4-1.18,0-.65-.25-1.15-.75-1.5-.5-.35-1.21-.53-2.13-.53H0c.29.15.48.26.48.26.7.36.96.57.42,2.02-.24.65-.35,1.3.12,1,.53-.34.84-.94,1.57-1.02.51-.05.77.24,1.1.3.31.06.72.11.72.11,0,0-1.28.22-1.43,1.02-.26,1.31.12,3.28-1.96,4.71h2.15c.94,0,1.69-.22,2.24-.67.55-.46.82-1.06.82-1.83,0-.52-.16-.95-.48-1.31Z"/>
  </g>
</svg>