<?xml version="1.0" encoding="UTF-8"?>
<svg id="Layer_2" data-name="Layer 2" xmlns="http://www.w3.org/2000/svg" viewBox="0 0 6.23 8.4">
  <defs>
    <style>
      .cls-1 {
        fill: #1958ff;
        stroke-width: 0px;
      }
    </style>
  </defs>
  <g id="Layer_1-2" data-name="Layer 1">
    <path class="cls-1" d="M5.75,4.59c-.32-.36-.8-.58-1.34-.65h0c.42-.14.81-.39,1.08-.73.26-.33.4-.73.4-1.18,0-.65-.25-1.15-.75-1.5-.5-.35-1.21-.53-2.13-.53H0c.29.15.48.26.48.26.7.36.96.57.42,2.02-.24.65-.35,1.3.12,1,.53-.34.84-.94,1.57-1.02.51-.05.77.24,1.1.3.31.06.72.11.72.11,0,0-1.28.22-1.43,1.02-.26,1.31.12,3.28-1.96,4.71h2.15c.94,0,1.69-.22,2.24-.67.55-.46.82-1.06.82-1.83,0-.52-.16-.95-.48-1.31Z"/>
  </g>
</svg>